<svg xmlns="http://www.w3.org/2000/svg" viewBox="0 0 1743.43 590.28"><defs><style>.cls-1,.cls-4{fill:#b7c72c}.cls-2,.cls-3{fill:#9b3777}.cls-3,.cls-4,.cls-6{fill-rule:evenodd}.cls-6{fill:#ced65d}</style></defs><g id="Camada_2" data-name="Camada 2"><g id="Camada_1-2" data-name="Camada 1"><path class="cls-1" d="M7.96 320.68L0 274.07h12.93l4.2 34.06h.22l7.43-34.06h15.74l6.79 34.06h.19l4.08-34.06H63.3l-8.03 46.61H39.91l-7.74-34.45h-.22l-8.53 34.45H7.96z"/><path class="cls-2" d="M286.69 46.61V0h18.39l14.77 33.15V0h11.06v46.61h-17.79l-15.14-34.23v34.23h-11.29z"/><path class="cls-1" d="M557.28 320.68v-46.61h34.38v8.94h-21.8v9.51h20.76v8.88h-20.76v9.96h22.43v9.32h-35.01zM300.31 574.47v.32a6.69 6.69 0 0 0 1.85 5 6.83 6.83 0 0 0 5 1.81 10.31 10.31 0 0 0 5.68-1.28 4.22 4.22 0 0 0 1.91-3.78q0-3.56-8.15-5.59l-2.92-.72q-9.22-2.48-12.44-5.56T288 556a11.82 11.82 0 0 1 5.34-10q5.34-3.86 14.16-3.85 9.36 0 14.13 3.44c3.19 2.3 4.77 5.71 4.77 10.22v.79h-12.93v-.23a5.26 5.26 0 0 0-5.88-5.88 7.16 7.16 0 0 0-4.53 1.33 4.2 4.2 0 0 0-1.71 3.48c0 2.33 3.41 4.32 10.22 5.94 1.81.43 3.22.77 4.24 1q6.4 1.68 9.41 4.89a11.77 11.77 0 0 1 3 8.39 12.5 12.5 0 0 1-5.5 11q-5.49 3.79-15.93 3.81-9.48 0-14.44-4c-3.31-2.7-5-6.61-5-11.76z"/><path class="cls-3" d="M544.36 288.81C533.9 163.18 446.52 62.53 315.15 59.6c5.13 61.66 79.63 40.73 130.7 98.51 44 49.77 51.39 126.78 98.51 130.7"/><path class="cls-4" d="M69 288.81c62.15-5.17 37.34-82.4 95.35-133.85 49.35-43.77 129.23-39.73 133.86-95.36C172.37 62.4 69 159.21 69 288.81"/><path class="cls-3" d="M69 339.75C69 440 183.31 535 298.17 535c-13.5-57.95-79-40.52-133.85-95.36C110 385.33 123.94 318.6 69 305.79z"/><path class="cls-4" d="M315.15 535h34C443.7 535 542 412.9 544.36 305.79c-55.44 4.61-49.58 81.87-95.38 133.83C401.49 493.5 319.89 478 315.15 535"/><path d="M306.66 59.6c-6.18 50-10.18 100.65-14.53 142.25-5.78 55.2-8.82 94.52 14.53 95.5z" fill="#ca9fb9" fill-rule="evenodd"/><path class="cls-3" d="M306.66 59.6c6.18 50 10.17 100.65 14.53 142.25 5.78 55.2 8.82 94.52-14.53 95.5z"/><path class="cls-6" d="M306.66 535.11c-6.18-50-10.18-100.65-14.53-142.25-5.78-55.21-8.82-94.53 14.53-95.5z"/><path class="cls-4" d="M306.66 535.11c6.18-50 10.17-100.65 14.53-142.25 5.78-55.21 8.82-94.53-14.53-95.5zM68.9 297.35c50 6.19 100.65 10.18 142.25 14.53 55.21 5.78 94.53 8.82 95.5-14.53z"/><path class="cls-6" d="M68.9 297.35c50-6.18 100.65-10.17 142.25-14.53 55.21-5.78 94.53-8.82 95.5 14.53z"/><path class="cls-4" d="M544.41 297.35c-50 6.19-100.65 10.18-142.25 14.53-55.21 5.78-94.52 8.82-95.5-14.53z"/><path class="cls-6" d="M544.41 297.35c-50-6.18-100.65-10.17-142.25-14.53-55.16-5.82-94.52-8.82-95.5 14.53z"/><path class="cls-2" d="M661.86 372.68V202.43h54v18.27a59.54 59.54 0 0 1 19.37-15.45 52.25 52.25 0 0 1 23.29-5.41 47.34 47.34 0 0 1 23.29 5.57c6.68 3.7 12.36 9.33 17.11 16.89a65.24 65.24 0 0 1 21.74-16.72 60.54 60.54 0 0 1 25.94-5.74q23.76 0 36.2 14.79t12.47 43v115H840v-90.34c0-9.82-1.16-16.56-3.53-20.31s-6.52-5.57-12.31-5.57-10.27 2.26-13.36 6.73-4.58 10.93-4.58 19.48v90.06h-55.28v-90.39c0-9.82-1.16-16.56-3.54-20.31s-6.51-5.57-12.3-5.57-10.27 2.26-13.36 6.73-4.58 10.93-4.58 19.48v90.06zM1054.1 356.24a120.49 120.49 0 0 1-32.1 14.51 127.19 127.19 0 0 1-35.49 4.86q-39 0-63.08-23.95t-24.06-62.09q0-37.67 25.27-63.52t62.2-25.88q27.15 0 47.52 15.34t29.64 42.88l-91 64.08a50.46 50.46 0 0 0 9.06 2.64 55.14 55.14 0 0 0 10.48.89 69.94 69.94 0 0 0 28.36-6.46c9.77-4.3 19.38-10.65 28.87-18.93zM951 289.13l51.71-37.42a20.16 20.16 0 0 0-7.78-4.91 30 30 0 0 0-10.16-1.54c-9.27 0-17.38 3.59-24.33 10.7S950 271.31 950 280.69a34 34 0 0 0 .22 4.08c.18 1.38.46 2.81.78 4.36zM1212.4 202.43v170.25h-55v-16.17a52 52 0 0 1-18.4 14.08 57.22 57.22 0 0 1-23.62 4.69q-24.26 0-36.75-14.63t-12.53-42.93V202.43h56v90.4c0 9.6 1.21 16.33 3.64 20.14s6.46 5.74 12.2 5.74c6.23 0 10.87-2.15 14-6.46s4.58-10.92 4.58-19.75v-90.07z"/><path class="cls-1" d="M1313 348.9c-3.81.66-7.34 1.1-10.71 1.43a96.55 96.55 0 0 1-9.82.5q-31.55 0-51.93-21.08t-20.4-53.75q0-33 21.36-54.42t54.2-21.41a77.59 77.59 0 0 1 11.47.83 75.62 75.62 0 0 1 11.15 2.43H1374l-17.33 25.22a94.56 94.56 0 0 1 12.2 24.44 81.92 81.92 0 0 1 4.14 25.5 60.9 60.9 0 0 1-4.31 22.3 75.86 75.86 0 0 1-12.36 20.86 89.08 89.08 0 0 1 10.21 20.41 60.38 60.38 0 0 1 3.37 19.21q0 31.22-21.36 51.11c-14.24 13.24-32.56 19.86-55.13 19.86a113 113 0 0 1-43.66-8.39 91.07 91.07 0 0 1-33.77-23.78l28.81-41.06a87.63 87.63 0 0 0 22.63 15.89 52.86 52.86 0 0 0 22.73 5.35c7.24 0 13.09-1.88 17.61-5.68a18.39 18.39 0 0 0 6.79-14.9 29 29 0 0 0-.39-4.53c-.27-1.71-.71-3.81-1.21-6.29M1295 297.46a21.5 21.5 0 0 0 21.2-21.13 20 20 0 0 0-6.3-14.57 20.85 20.85 0 0 0-29.63-.22 19.93 19.93 0 0 0-6.13 14.79 20.62 20.62 0 0 0 6.07 15 20.05 20.05 0 0 0 14.79 6.13zM1526.51 202.43v170.25h-55v-16.17a52 52 0 0 1-18.43 14.08 57.22 57.22 0 0 1-23.62 4.69q-24.26 0-36.76-14.63t-12.52-42.93V202.43h56v90.4c0 9.6 1.22 16.33 3.65 20.14s6.46 5.74 12.2 5.74c6.23 0 10.87-2.15 14-6.46s4.58-10.92 4.58-19.75v-90.07zM1540.21 187.53v-51.6h56v51.6zm0 185.15V202.43h56v170.25zM1695.7 372.68V361a48 48 0 0 1-16.4 11 52.88 52.88 0 0 1-19.81 3.64q-24.09 0-39.13-16.17t-15-42.05q0-26.49 16.56-42.61t43.93-16.06a47.86 47.86 0 0 1 12.52 1.77 62 62 0 0 1 12.64 5.19 16.45 16.45 0 0 0 .28-1.88v-3c0-7-2.26-11.92-6.84-14.73s-12.91-4.2-25-4.2c-7.17 0-13.9.22-20.09.66s-12.08 1-17.55 1.93l6.63-39.29c8.39-1.21 16.22-2.1 23.51-2.59s14.24-.83 20.8-.83q40.56 0 55.63 12.8t15 48.18v109.92zm-19.21-41.05a17.24 17.24 0 0 0 12.53-5.25 17.43 17.43 0 0 0 5.24-12.69A17.69 17.69 0 0 0 1689 301a17 17 0 0 0-12.53-5.41 16.7 16.7 0 0 0-12.36 5.35 18.32 18.32 0 0 0-.17 25.5 16.85 16.85 0 0 0 12.55 5.19z"/><path class="cls-2" d="M1611.88 541q26.76-57.74 55.68-127.34l-4.37-3.09q-9.27 0-31.38 27.84T1607 466.76l-2.73-2.06q4.37-16.5 28.93-39.7t42-23.2a14 14 0 0 1 10.92 4.9 16.22 16.22 0 0 1 4.36 11.09q0 4.13-5.45 24.74 12-18.55 18-24.74 12.56-12.37 27.29-12.37 13.1 0 13.1 13.4 0 13.92-12.83 25.26T1703 455.42q-8.73 0-14.74-8.25-8.19 8.25-23.47 44.34-10.36 24.74-20.74 49.49zm-141.37 1q-7.1 0-13.64-5.93t-6.55-12.63q0-7.74 25.11-57t25.1-53.35q0-4.12-5.46-4.13-8.71 0-25.65 26.29t-19.1 26.81l-3.28-2.06q0-15.46 21.56-36.86t37.4-21.34q19.65 0 19.65 14.44 0 15.47-18.56 56.19-14.19 27.84-28.38 56.2a5 5 0 0 0 4.37 2.57q12 0 45.85-44.85 18-23.72 41.48-83h32.21l-55.14 127.34q0 4.13 4.92 4.12 8.73 0 25.65-26.29t18.56-26.81l2.73 2.58q0 6.7-13.65 26.29t-20.74 25.26q-8.73 6.7-21.29 6.7a21.07 21.07 0 0 1-15-5.92 18.83 18.83 0 0 1-6.28-14.18q0-7.22 8.73-28.36-34.39 47.92-60.6 47.92zm-12-207.24l-30 68.56 28.39-1v7.22l-32.21 1-28.38 62.89q-22.38 49.5-22.93 57.23l1.1 2.58a9.62 9.62 0 0 0 4.36 1.54q15.84 0 51.31-52.07l6 2.07q-33.84 57.73-62.77 57.73a24.07 24.07 0 0 1-16.64-6.7q-7.38-6.71-7.37-15 0-13.39 17.47-54.13 12.54-27.84 25.1-55.67l-15.28 1v-7.11l18.56-.52 31.11-69.59zM1693.11 87.48h5.77q5.61 0 7-.48a4.2 4.2 0 0 0 2.19-1.63 5.06 5.06 0 0 0 .79-2.91 4.67 4.67 0 0 0-1-3.15 4.75 4.75 0 0 0-2.94-1.51c-.63-.09-2.53-.14-5.69-.14h-6.08zm-7.82 22.28V71.14h16.42q6.19 0 9 1a8.79 8.79 0 0 1 4.49 3.69 11.12 11.12 0 0 1 1.69 6.09 10.32 10.32 0 0 1-2.54 7.18c-1.7 1.89-4.23 3.08-7.61 3.57a17.8 17.8 0 0 1 4.15 3.24 43 43 0 0 1 4.42 6.27l4.71 7.54h-9.32l-5.59-8.44a53.31 53.31 0 0 0-4.13-5.66 6.06 6.06 0 0 0-2.34-1.6 13.09 13.09 0 0 0-4-.43h-1.58v16.13z"/><path class="cls-3" d="M1700.72 127c21.23 0 36.5-15.27 36.5-36.5s-15.27-36.51-36.5-36.51-36.51 15.28-36.51 36.51 15.28 36.5 36.51 36.5m0 6.21A42.72 42.72 0 1 0 1658 90.45a42.71 42.71 0 0 0 42.72 42.71z"/></g></g></svg>